
<svg width="95" height="20" viewBox="0 0 95 20" fill="none" xmlns="http://www.w3.org/2000/svg">
<path d="M5.5 15L0.22 0.0999987H2.76L7.08 12.82H6.58L10.88 0.0999987H13.42L8.14 15H5.5ZM19.1767 15.24C18.1367 15.24 17.1834 14.9933 16.3167 14.5C15.4634 14.0067 14.7834 13.3333 14.2767 12.48C13.7701 11.6267 13.5167 10.66 13.5167 9.58C13.5167 8.48667 13.7701 7.52 14.2767 6.68C14.7834 5.82667 15.4634 5.16 16.3167 4.68C17.1701 4.18667 18.1234 3.94 19.1767 3.94C20.2434 3.94 21.1967 4.18667 22.0367 4.68C22.8901 5.16 23.5634 5.82667 24.0567 6.68C24.5634 7.52 24.8167 8.48667 24.8167 9.58C24.8167 10.6733 24.5634 11.6467 24.0567 12.5C23.5501 13.3533 22.8701 14.0267 22.0167 14.52C21.1634 15 20.2167 15.24 19.1767 15.24ZM19.1767 13.14C19.8167 13.14 20.3834 12.9867 20.8767 12.68C21.3701 12.3733 21.7567 11.9533 22.0367 11.42C22.3301 10.8733 22.4767 10.26 22.4767 9.58C22.4767 8.9 22.3301 8.29333 22.0367 7.76C21.7567 7.22667 21.3701 6.80667 20.8767 6.5C20.3834 6.19333 19.8167 6.04 19.1767 6.04C18.5501 6.04 17.9834 6.19333 17.4767 6.5C16.9834 6.80667 16.5901 7.22667 16.2967 7.76C16.0167 8.29333 15.8767 8.9 15.8767 9.58C15.8767 10.26 16.0167 10.8733 16.2967 11.42C16.5901 11.9533 16.9834 12.3733 17.4767 12.68C17.9834 12.9867 18.5501 13.14 19.1767 13.14ZM27.0231 15V4.18H29.2831V15H27.0231ZM27.0231 2.7V0.0999987H29.2831V2.7H27.0231ZM37.0655 15.24C35.9855 15.24 35.0255 14.9933 34.1855 14.5C33.3588 13.9933 32.6988 13.3133 32.2055 12.46C31.7255 11.6067 31.4855 10.64 31.4855 9.56C31.4855 8.49333 31.7255 7.53333 32.2055 6.68C32.6855 5.82667 33.3455 5.16 34.1855 4.68C35.0255 4.18667 35.9855 3.94 37.0655 3.94C37.7988 3.94 38.4855 4.07333 39.1255 4.34C39.7655 4.59333 40.3188 4.94667 40.7855 5.4C41.2655 5.85333 41.6188 6.38 41.8455 6.98L39.8655 7.9C39.6388 7.34 39.2721 6.89333 38.7655 6.56C38.2721 6.21333 37.7055 6.04 37.0655 6.04C36.4521 6.04 35.8988 6.19333 35.4055 6.5C34.9255 6.79333 34.5455 7.21333 34.2655 7.76C33.9855 8.29333 33.8455 8.9 33.8455 9.58C33.8455 10.26 33.9855 10.8733 34.2655 11.42C34.5455 11.9533 34.9255 12.3733 35.4055 12.68C35.8988 12.9867 36.4521 13.14 37.0655 13.14C37.7188 13.14 38.2855 12.9733 38.7655 12.64C39.2588 12.2933 39.6255 11.8333 39.8655 11.26L41.8455 12.2C41.6321 12.7733 41.2855 13.2933 40.8055 13.76C40.3388 14.2133 39.7855 14.5733 39.1455 14.84C38.5055 15.1067 37.8121 15.24 37.0655 15.24ZM44.0544 15V4.18H46.3144V15H44.0544ZM44.0544 2.7V0.0999987H46.3144V2.7H44.0544ZM48.9567 15V4.18H51.1167V6.3L50.8567 6.02C51.1234 5.34 51.5501 4.82667 52.1367 4.48C52.7234 4.12 53.4034 3.94 54.1767 3.94C54.9767 3.94 55.6834 4.11333 56.2967 4.46C56.9101 4.80667 57.3901 5.28667 57.7367 5.9C58.0834 6.51333 58.2567 7.22 58.2567 8.02V15H56.0167V8.62C56.0167 8.07333 55.9167 7.61333 55.7167 7.24C55.5167 6.85333 55.2301 6.56 54.8567 6.36C54.4967 6.14667 54.0834 6.04 53.6167 6.04C53.1501 6.04 52.7301 6.14667 52.3567 6.36C51.9967 6.56 51.7167 6.85333 51.5167 7.24C51.3167 7.62667 51.2167 8.08667 51.2167 8.62V15H48.9567ZM65.8955 19.4C65.1088 19.4 64.3821 19.2733 63.7155 19.02C63.0488 18.7667 62.4755 18.4133 61.9955 17.96C61.5155 17.52 61.1555 17 60.9155 16.4L62.9955 15.54C63.1821 16.0467 63.5221 16.4667 64.0155 16.8C64.5221 17.1333 65.1421 17.3 65.8755 17.3C66.4488 17.3 66.9621 17.1867 67.4155 16.96C67.8688 16.7467 68.2288 16.4267 68.4955 16C68.7621 15.5867 68.8955 15.0867 68.8955 14.5V12.06L69.2955 12.52C68.9221 13.2133 68.4021 13.74 67.7355 14.1C67.0821 14.46 66.3421 14.64 65.5155 14.64C64.5155 14.64 63.6155 14.4067 62.8155 13.94C62.0155 13.4733 61.3821 12.8333 60.9155 12.02C60.4621 11.2067 60.2355 10.2933 60.2355 9.28C60.2355 8.25333 60.4621 7.34 60.9155 6.54C61.3821 5.74 62.0088 5.10667 62.7955 4.64C63.5821 4.17333 64.4821 3.94 65.4955 3.94C66.3221 3.94 67.0555 4.12 67.6955 4.48C68.3488 4.82667 68.8821 5.33333 69.2955 6L68.9955 6.56V4.18H71.1355V14.5C71.1355 15.4333 70.9088 16.2667 70.4555 17C70.0155 17.7467 69.4021 18.3333 68.6155 18.76C67.8288 19.1867 66.9221 19.4 65.8955 19.4ZM65.7755 12.54C66.3755 12.54 66.9088 12.4 67.3755 12.12C67.8421 11.8267 68.2088 11.44 68.4755 10.96C68.7555 10.4667 68.8955 9.91333 68.8955 9.3C68.8955 8.68667 68.7555 8.13333 68.4755 7.64C68.1955 7.14667 67.8221 6.76 67.3555 6.48C66.8888 6.18667 66.3621 6.04 65.7755 6.04C65.1621 6.04 64.6155 6.18667 64.1355 6.48C63.6555 6.76 63.2755 7.14667 62.9955 7.64C62.7288 8.12 62.5955 8.67333 62.5955 9.3C62.5955 9.9 62.7288 10.4467 62.9955 10.94C63.2755 11.4333 63.6555 11.8267 64.1355 12.12C64.6155 12.4 65.1621 12.54 65.7755 12.54ZM74.7809 15V12.4H77.0809V15H74.7809Z" fill="black"/>
<path d="M83.9545 15.24C83.2212 15.24 82.5745 15.1133 82.0145 14.86C81.4679 14.5933 81.0412 14.2333 80.7345 13.78C80.4279 13.3133 80.2745 12.7667 80.2745 12.14C80.2745 11.5533 80.4012 11.0267 80.6545 10.56C80.9212 10.0933 81.3279 9.7 81.8745 9.38C82.4212 9.06 83.1079 8.83333 83.9345 8.7L87.6945 8.08V9.86L84.3745 10.44C83.7745 10.5467 83.3345 10.74 83.0545 11.02C82.7745 11.2867 82.6345 11.6333 82.6345 12.06C82.6345 12.4733 82.7879 12.8133 83.0945 13.08C83.4145 13.3333 83.8212 13.46 84.3145 13.46C84.9279 13.46 85.4612 13.3267 85.9145 13.06C86.3812 12.7933 86.7412 12.44 86.9945 12C87.2479 11.5467 87.3745 11.0467 87.3745 10.5V7.72C87.3745 7.18667 87.1745 6.75333 86.7745 6.42C86.3879 6.07333 85.8679 5.9 85.2145 5.9C84.6145 5.9 84.0879 6.06 83.6345 6.38C83.1945 6.68667 82.8679 7.08667 82.6545 7.58L80.7745 6.64C80.9745 6.10667 81.3012 5.64 81.7545 5.24C82.2079 4.82667 82.7345 4.50667 83.3345 4.28C83.9479 4.05333 84.5945 3.94 85.2745 3.94C86.1279 3.94 86.8812 4.1 87.5345 4.42C88.2012 4.74 88.7145 5.18667 89.0745 5.76C89.4479 6.32 89.6345 6.97333 89.6345 7.72V15H87.4745V13.04L87.9345 13.1C87.6812 13.54 87.3545 13.92 86.9545 14.24C86.5679 14.56 86.1212 14.8067 85.6145 14.98C85.1212 15.1533 84.5679 15.24 83.9545 15.24ZM92.277 15V4.18H94.537V15H92.277ZM92.277 2.7V0.0999987H94.537V2.7H92.277Z" fill="url(#paint0_linear_590_10710)"/>
<defs>
<linearGradient id="paint0_linear_590_10710" x1="77.3959" y1="6.5" x2="96" y2="6.5" gradientUnits="userSpaceOnUse">
<stop stop-color="#B00A49"/>
<stop offset="1" stop-color="#6006A7"/>
</linearGradient>
</defs>
</svg>
